# xmcd
#
# Track frame offsets: 
#        150
#        20192
#        41600
#        62262
#        84075
#        104670
#        124802
#        146617
#        167917
#        188522
#
# Disc length: 2794 seconds
#
# Revision: 0
# Processed by: cddbd v1.5.1PL0 Copyright (c) Steve Scherf et al.
# Submitted via: ExactAudioCopy v0.95a5
#
DISCID=810ae80a
DTITLE=许景淳 - 芬芳
DYEAR=1900
DGENRE=Pop
TTITLE0=幻想
TTITLE1=人好假
TTITLE2=谁把谁忘记
TTITLE3=妥协
TTITLE4=芬芳
TTITLE5=花戒指
TTITLE6=难为了情
TTITLE7=晴
TTITLE8=谁规定
TTITLE9=追寻着我的脚步
EXTD=
EXTT0=
EXTT1=
EXTT2=
EXTT3=
EXTT4=
EXTT5=
EXTT6=
EXTT7=
EXTT8=
EXTT9=
PLAYORDER=
